{"title":"Bring It On 5Pack DVDrip English Klam","uid":6411545,"size":6344044120,"categoryP":"video","categoryS":"movies","magnet":"?xt=urn:btih:8c5f36ac1e3cd868ac198c99c83b4ade76de9f6b&amp;dn=Bring+It+On+5Pack+DVDrip+English+Klam&amp;tr=udp%3A%2F%2Ftracker.openbittorrent.com%3A80&amp;tr=udp%3A%2F%2Fopen.demonii.com%3A1337&amp;tr=udp%3A%2F%2Ftracker.coppersurfer.tk%3A6969&amp;tr=udp%3A%2F%2Fexodus.desync.com%3A6969","seeders":11,"leechers":3,"uploader":"Klambake","files":-1,"time":1306005756,"description":"Bring it On 2000\nA champion high school cheerleading squad discovers its previous captain stole all their best routines from an inner-city school and must scramble to compete at this year's championships. \n\nBring it On Again 2004\nWhen new students can't get onto their college cheerleading team, they form their own squad and prepare for a cheer off.\n\nBring it On All or Nothing 2006\nA transfer student to a rough high school tries joining the cheer-leading squad and she not only faces off against the head cheerleader, but against her former school in preparation for a cheer-off competition. \n\nBring it On In It or Win It 2007\nSouthern California high school senior Carson arrives at the all-important &quot;Cheer Camp Nationals&quot; determined to lead her squad...\n\nBring it On Fight to the Finish 2009\nLina Cruz is a tough, sharp-witted Latina cheerleader from East L.A. who transfers to a posh, West Los...\n\nGeneral:\n\nComplete name                    : Bring It On 5Pack\\Again.avi\nFormat                           : AVI\nFormat/Info                      : Audio Video Interleave\nFile size                        : 1.37 GiB\nDuration                         : 1h 30mn\nOverall bit rate                 : 2 183 Kbps\n\nVideo:\n\nFormat                           : MPEG-4 Visual\nFormat profile                   : Simple@L3\nFormat settings, BVOP            : No\nFormat settings, QPel            : No\nFormat settings, GMC             : No warppoints\nFormat settings, Matrix          : Default (H.263)\nCodec ID                         : XVID\nCodec ID/Hint                    : XviD\nDuration                         : 1h 30mn\nBit rate                         : 1 724 Kbps\nWidth                            : 652 pixels\nHeight                           : 352 pixels\nDisplay aspect ratio             : 1.852\nFrame rate                       : 23.976 fps\nColor space                      : YUV\nChroma subsampling               : 4:2:0\nBit depth                        : 8 bits\nScan type                        : Progressive\nBits/(Pixel*Frame)               : 0.313\nStream size                      : 1.08 GiB (79%)\nWriting library                  : XviD 1.1.2 (UTC 2006-11-01)\n\nAudio:\n\nFormat                           : AC-3\nFormat/Info                      : Audio Coding 3\nMode extension                   : CM (complete main)\nCodec ID                         : 2000\nDuration                         : 1h 30mn\nBit rate mode                    : Constant\nBit rate                         : 448 Kbps\nChannel(s)                       : 6 channels\nChannel positions                : Front: L C R, Side: L R, LFE\nSampling rate                    : 48.0 KHz\nBit depth                        : 16 bits\nStream size                      : 288 MiB (21%)\nAlignment                        : Aligned on interleaves\nInterleave, duration             : 32 ms (0.77 video frame)\nInterleave, preload duration     : 192 ms\n","torrent":{"xt":"urn:btih:8c5f36ac1e3cd868ac198c99c83b4ade76de9f6b","amp;dn":"Bring+It+On+5Pack+DVDrip+English+Klam","amp;tr":["udp%3A%2F%2Ftracker.openbittorrent.com%3A80","udp%3A%2F%2Fopen.demonii.com%3A1337","udp%3A%2F%2Ftracker.coppersurfer.tk%3A6969","udp%3A%2F%2Fexodus.desync.com%3A6969"],"infoHash":"8c5f36ac1e3cd868ac198c99c83b4ade76de9f6b","infoHashBuffer":{"type":"Buffer","data":[140,95,54,172,30,60,216,104,172,25,140,153,200,59,74,222,118,222,159,107]},"announce":[],"urlList":[]}}